<?xml version="1.0" encoding="UTF-8" standalone="no"?>
<!-- Created with Inkscape (http://www.inkscape.org/) -->

<svg
   xmlns:dc="http://purl.org/dc/elements/1.1/"
   xmlns:cc="http://creativecommons.org/ns#"
   xmlns:rdf="http://www.w3.org/1999/02/22-rdf-syntax-ns#"
   xmlns:svg="http://www.w3.org/2000/svg"
   xmlns="http://www.w3.org/2000/svg"
   xmlns:sodipodi="http://sodipodi.sourceforge.net/DTD/sodipodi-0.dtd"
   xmlns:inkscape="http://www.inkscape.org/namespaces/inkscape"
   id="svg2"
   version="1.1"
   inkscape:version="0.91 r13725"
   xml:space="preserve"
   width="375.00125"
   height="258.41501"
   viewBox="0 0 375.00125 258.41501"
   sodipodi:docname="games.svg"><metadata
     id="metadata8"><rdf:RDF><cc:Work
         rdf:about=""><dc:format>image/svg+xml</dc:format><dc:type
           rdf:resource="http://purl.org/dc/dcmitype/StillImage" /><dc:title></dc:title></cc:Work></rdf:RDF></metadata><defs
     id="defs6"><clipPath
       clipPathUnits="userSpaceOnUse"
       id="clipPath16"><path
         d="m 0,206.732 300.001,0 L 300.001,0 0,0 0,206.732 Z"
         id="path18"
         inkscape:connector-curvature="0" /></clipPath></defs><sodipodi:namedview
     pagecolor="#ffffff"
     bordercolor="#666666"
     borderopacity="1"
     objecttolerance="10"
     gridtolerance="10"
     guidetolerance="10"
     inkscape:pageopacity="0"
     inkscape:pageshadow="2"
     inkscape:window-width="640"
     inkscape:window-height="480"
     id="namedview4"
     showgrid="false"
     inkscape:zoom="0.91325965"
     inkscape:cx="187.50063"
     inkscape:cy="129.2075"
     inkscape:window-x="0"
     inkscape:window-y="0"
     inkscape:window-maximized="0"
     inkscape:current-layer="g10" /><g
     id="g10"
     inkscape:groupmode="layer"
     inkscape:label="Vector Smart Object2"
     transform="matrix(1.25,0,0,-1.25,0,258.415)"><g
       id="g12"><g
         id="g14"
         clip-path="url(#clipPath16)"><g
           id="g20"
           transform="translate(224.1195,15.3086)"><path
             d="m 0,0 c -25.25,0 -48.091,15.91 -56.837,39.589 -1.11,3.007 -3.976,5.003 -7.179,5.003 l -20.204,0 c -3.204,0 -6.069,-1.996 -7.179,-5.002 -8.748,-23.679 -31.589,-39.589 -56.839,-39.589 -33.4,-0.001 -60.573,27.173 -60.573,60.573 0,33.4 27.173,60.573 60.573,60.573 l 148.238,0 c 33.4,0 60.573,-27.173 60.573,-60.573 C 60.572,27.174 33.399,0 0,0 m 0,136.454 -66.465,0 0,19.83 c 0,19.376 -15.762,35.139 -35.138,35.139 l -35.335,0 c -4.228,0 -7.655,-3.427 -7.655,-7.654 0,-4.227 3.427,-7.654 7.655,-7.654 l 35.335,0 c 10.934,0 19.83,-8.896 19.83,-19.831 l 0,-19.83 -66.465,0 c -41.841,0 -75.882,-34.04 -75.882,-75.88 0,-41.841 34.041,-75.883 75.882,-75.883 29.816,0 56.952,17.712 69.144,44.591 l 9.951,0 C -56.952,2.402 -29.817,-15.309 0,-15.309 c 41.841,0 75.881,34.042 75.881,75.883 -0.001,41.84 -34.04,75.88 -75.881,75.88"
             style="fill:#000000;fill-opacity:1;fill-rule:nonzero;stroke:none"
             id="path22"
             inkscape:connector-curvature="0" /></g><g
           id="g24"
           transform="translate(104.0544,83.5368)"><path
             d="m 0,0 -20.519,0 0,20.754 c 0,4.228 -3.426,7.655 -7.654,7.655 -4.228,0 -7.654,-3.427 -7.654,-7.655 l 0,-20.754 -20.52,0 c -4.228,0 -7.654,-3.427 -7.654,-7.654 0,-4.228 3.426,-7.655 7.654,-7.655 l 20.519,0 0,-20.755 c 0,-4.227 3.426,-7.654 7.654,-7.654 4.228,0 7.654,3.427 7.654,7.654 l 0,20.755 20.519,0 c 4.228,0 7.654,3.427 7.654,7.655 C 7.654,-3.427 4.228,0 0,0"
             style="fill:#000000;fill-opacity:1;fill-rule:nonzero;stroke:none"
             id="path26"
             inkscape:connector-curvature="0" /></g><g
           id="g28"
           transform="translate(224.1195,113.0017)"><path
             d="M 0,0 C 6.013,0 10.887,-4.874 10.887,-10.887 10.887,-16.9 6.013,-21.775 0,-21.775 c -6.013,0 -10.887,4.875 -10.887,10.888 C -10.887,-4.874 -6.013,0 0,0"
             style="fill:#000000;fill-opacity:1;fill-rule:nonzero;stroke:none"
             id="path30"
             inkscape:connector-curvature="0" /></g><g
           id="g32"
           transform="translate(224.1195,60.5393)"><path
             d="M 0,0 C 6.013,0 10.887,-4.874 10.887,-10.887 10.887,-16.9 6.013,-21.775 0,-21.775 c -6.013,0 -10.887,4.875 -10.887,10.888 C -10.887,-4.874 -6.013,0 0,0"
             style="fill:#000000;fill-opacity:1;fill-rule:nonzero;stroke:none"
             id="path34"
             inkscape:connector-curvature="0" /></g><g
           id="g36"
           transform="translate(250.3512,86.769)"><path
             d="M 0,0 C 6.013,0 10.887,-4.874 10.887,-10.887 10.887,-16.9 6.013,-21.775 0,-21.775 c -6.013,0 -10.887,4.875 -10.887,10.888 C -10.887,-4.874 -6.013,0 0,0"
             style="fill:#000000;fill-opacity:1;fill-rule:nonzero;stroke:none"
             id="path38"
             inkscape:connector-curvature="0" /></g><g
           id="g40"
           transform="translate(197.8867,86.769)"><path
             d="M 0,0 C 6.013,0 10.887,-4.874 10.887,-10.887 10.887,-16.9 6.013,-21.775 0,-21.775 c -6.013,0 -10.887,4.875 -10.887,10.888 C -10.887,-4.874 -6.013,0 0,0"
             style="fill:#000000;fill-opacity:1;fill-rule:nonzero;stroke:none"
             id="path42"
             inkscape:connector-curvature="0" /></g></g></g></g></svg>