<?xml version="1.0" encoding="UTF-8" standalone="no"?>
<!-- Created with Inkscape (http://www.inkscape.org/) -->

<svg
   xmlns:dc="http://purl.org/dc/elements/1.1/"
   xmlns:cc="http://creativecommons.org/ns#"
   xmlns:rdf="http://www.w3.org/1999/02/22-rdf-syntax-ns#"
   xmlns:svg="http://www.w3.org/2000/svg"
   xmlns="http://www.w3.org/2000/svg"
   xmlns:sodipodi="http://sodipodi.sourceforge.net/DTD/sodipodi-0.dtd"
   xmlns:inkscape="http://www.inkscape.org/namespaces/inkscape"
   id="svg2"
   version="1.1"
   inkscape:version="0.91 r13725"
   xml:space="preserve"
   width="104.37625"
   height="93.126251"
   viewBox="0 0 104.37625 93.126251"
   sodipodi:docname="mobile.svg"><metadata
     id="metadata8"><rdf:RDF><cc:Work
         rdf:about=""><dc:format>image/svg+xml</dc:format><dc:type
           rdf:resource="http://purl.org/dc/dcmitype/StillImage" /><dc:title></dc:title></cc:Work></rdf:RDF></metadata><defs
     id="defs6"><clipPath
       clipPathUnits="userSpaceOnUse"
       id="clipPath16"><path
         d="m 0,74.501 83.501,0 L 83.501,0 0,0 0,74.501 Z"
         id="path18"
         inkscape:connector-curvature="0" /></clipPath></defs><sodipodi:namedview
     pagecolor="#ffffff"
     bordercolor="#666666"
     borderopacity="1"
     objecttolerance="10"
     gridtolerance="10"
     guidetolerance="10"
     inkscape:pageopacity="0"
     inkscape:pageshadow="2"
     inkscape:window-width="640"
     inkscape:window-height="480"
     id="namedview4"
     showgrid="false"
     inkscape:zoom="2.5341941"
     inkscape:cx="52.188126"
     inkscape:cy="46.563126"
     inkscape:window-x="0"
     inkscape:window-y="0"
     inkscape:window-maximized="0"
     inkscape:current-layer="g10" /><g
     id="g10"
     inkscape:groupmode="layer"
     inkscape:label="Vector Smart Object1"
     transform="matrix(1.25,0,0,-1.25,0,93.12625)"><g
       id="g12"><g
         id="g14"
         clip-path="url(#clipPath16)"><g
           id="g20"
           transform="translate(41,67.569)"><path
             d="m 0,0 c 0,1.619 -1.312,2.932 -2.932,2.932 l -31.136,0 C -35.687,2.932 -37,1.619 -37,0 l 0,-50.136 c 0,-1.619 1.313,-2.933 2.932,-2.933 l 31.136,0 c 1.619,0 2.933,1.313 2.933,2.933 L 0,0 Z m 4,-50.136 c 0,-3.828 -3.104,-6.933 -6.932,-6.933 l -31.136,0 c -3.828,0 -6.932,3.104 -6.932,6.933 L -41,0 c 0,3.828 3.104,6.932 6.932,6.932 l 31.136,0 C 0.896,6.932 4.001,3.828 4.001,0 L 4,-50.136 Z"
             style="fill:#292929;fill-opacity:1;fill-rule:nonzero;stroke:none"
             id="path22"
             inkscape:connector-curvature="0" /></g><g
           id="g24"
           transform="translate(42.954,23.501)"><path
             d="m 0,0 -41,0 c -0.553,0 -1,0.447 -1,1 0,0.553 0.447,1 1,1 L 0,2 C 0.552,2 1,1.553 1,1 1,0.447 0.552,0 0,0"
             style="fill:#292929;fill-opacity:1;fill-rule:nonzero;stroke:none"
             id="path26"
             inkscape:connector-curvature="0" /></g><g
           id="g28"
           transform="translate(42.954,63.501)"><path
             d="m 0,0 -41,0 c -0.553,0 -1,0.447 -1,1 0,0.553 0.447,1 1,1 L 0,2 C 0.552,2 1,1.553 1,1 1,0.447 0.552,0 0,0"
             style="fill:#292929;fill-opacity:1;fill-rule:nonzero;stroke:none"
             id="path30"
             inkscape:connector-curvature="0" /></g><g
           id="g32"
           transform="translate(25,19.251)"><path
             d="m 0,0 c 0,-0.967 -0.784,-1.75 -1.75,-1.75 l -0.5,0 C -3.216,-1.75 -4,-0.967 -4,0 l 0,0.5 c 0,0.967 0.784,1.75 1.75,1.75 l 0.5,0 C -0.784,2.25 0,1.467 0,0.5 L 0,0 Z"
             style="fill:#292929;fill-opacity:1;fill-rule:nonzero;stroke:none"
             id="path34"
             inkscape:connector-curvature="0" /></g><g
           id="g36"
           transform="translate(27.02,45.733)"><path
             d="M 0,0 C -0.108,0 -0.222,0.018 -0.33,0.057 -0.851,0.24 -1.125,0.811 -0.942,1.332 l 0.271,0.772 C -0.486,2.625 0.081,2.902 0.604,2.715 1.125,2.532 1.399,1.961 1.215,1.44 L 0.943,0.668 C 0.798,0.257 0.414,0 0,0"
             style="fill:#292929;fill-opacity:1;fill-rule:nonzero;stroke:none"
             id="path38"
             inkscape:connector-curvature="0" /></g><g
           id="g40"
           transform="translate(23.207,34.876)"><path
             d="M 0,0 C -0.109,0 -0.222,0.018 -0.331,0.057 -0.852,0.24 -1.126,0.811 -0.943,1.33 L 1.892,9.406 C 2.076,9.927 2.646,10.205 3.167,10.018 3.688,9.835 3.962,9.264 3.778,8.744 L 0.942,0.668 C 0.799,0.255 0.413,0 0,0"
             style="fill:#292929;fill-opacity:1;fill-rule:nonzero;stroke:none"
             id="path42"
             inkscape:connector-curvature="0" /></g><g
           id="g44"
           transform="translate(19.154,42.417)"><path
             d="M 0,0 C -0.109,0 -0.222,0.018 -0.331,0.057 -0.852,0.239 -1.126,0.81 -0.943,1.33 L 3.203,13.142 C 3.385,13.664 3.956,13.94 4.477,13.754 4.998,13.571 5.272,13 5.089,12.48 L 0.943,0.668 C 0.8,0.255 0.413,0 0,0"
             style="fill:#292929;fill-opacity:1;fill-rule:nonzero;stroke:none"
             id="path46"
             inkscape:connector-curvature="0" /></g><g
           id="g48"
           transform="translate(17.207,36.876)"><path
             d="M 0,0 C -0.109,0 -0.222,0.018 -0.331,0.057 -0.852,0.24 -1.126,0.811 -0.943,1.332 l 0.61,1.734 C -0.15,3.587 0.419,3.863 0.941,3.676 1.462,3.494 1.736,2.922 1.553,2.402 L 0.943,0.668 C 0.799,0.255 0.413,0 0,0"
             style="fill:#292929;fill-opacity:1;fill-rule:nonzero;stroke:none"
             id="path50"
             inkscape:connector-curvature="0" /></g><g
           id="g52"
           transform="translate(76.568,45.001)"><path
             d="m 0,0 -27.943,0 0,-4 L 0,-4 c 1.619,0 2.933,-1.313 2.933,-2.932 l 0,-31.136 C 2.933,-39.687 1.62,-41.001 0,-41.001 L -50.136,-41 c -1.619,0 -2.932,1.312 -2.932,2.932 l 0,0.704 c -1.334,0.01 -2.667,0.029 -4,0.065 l 0,-0.769 c 0,-3.828 3.104,-6.933 6.932,-6.933 L 0,-45 c 3.828,0 6.933,3.104 6.933,6.932 l 0,31.136 C 6.933,-3.104 3.829,0 0,0"
             style="fill:#292929;fill-opacity:1;fill-rule:nonzero;stroke:none"
             id="path54"
             inkscape:connector-curvature="0" /></g><g
           id="g56"
           transform="translate(69.5,1.047)"><path
             d="m 0,0 c -0.553,0 -1,0.448 -1,1 l 0,41 c 0,0.553 0.447,1 1,1 0.553,0 1,-0.447 1,-1 L 1,1 C 1,0.448 0.553,0 0,0"
             style="fill:#292929;fill-opacity:1;fill-rule:nonzero;stroke:none"
             id="path58"
             inkscape:connector-curvature="0" /></g><g
           id="g60"
           transform="translate(29.5001,1.0469)"><path
             d="m 0,0 c -0.553,0 -1,0.069 -1,0.153 l 0,6.273 c 0,0.085 0.447,0.153 1,0.153 0.553,0 1,-0.068 1,-0.153 L 1,0.153 C 1,0.069 0.553,0 0,0"
             style="fill:#292929;fill-opacity:1;fill-rule:nonzero;stroke:none"
             id="path62"
             inkscape:connector-curvature="0" /></g><g
           id="g64"
           transform="translate(74.25,20.001)"><path
             d="m 0,0 c -0.967,0 -1.75,0.784 -1.75,1.75 l 0,0.5 C -1.75,3.216 -0.967,4 0,4 L 0.5,4 C 1.467,4 2.25,3.216 2.25,2.25 l 0,-0.5 C 2.25,0.784 1.467,0 0.5,0 L 0,0 Z"
             style="fill:#292929;fill-opacity:1;fill-rule:nonzero;stroke:none"
             id="path66"
             inkscape:connector-curvature="0" /></g></g></g></g></svg>