<?xml version="1.0" encoding="UTF-8" standalone="no"?>
<!-- Created with Inkscape (http://www.inkscape.org/) -->

<svg
   xmlns:dc="http://purl.org/dc/elements/1.1/"
   xmlns:cc="http://creativecommons.org/ns#"
   xmlns:rdf="http://www.w3.org/1999/02/22-rdf-syntax-ns#"
   xmlns:svg="http://www.w3.org/2000/svg"
   xmlns="http://www.w3.org/2000/svg"
   xmlns:sodipodi="http://sodipodi.sourceforge.net/DTD/sodipodi-0.dtd"
   xmlns:inkscape="http://www.inkscape.org/namespaces/inkscape"
   id="svg2"
   version="1.1"
   inkscape:version="0.91 r13725"
   xml:space="preserve"
   width="375.00626"
   height="375"
   viewBox="0 0 375.00626 375"
   sodipodi:docname="music.svg"><metadata
     id="metadata8"><rdf:RDF><cc:Work
         rdf:about=""><dc:format>image/svg+xml</dc:format><dc:type
           rdf:resource="http://purl.org/dc/dcmitype/StillImage" /><dc:title></dc:title></cc:Work></rdf:RDF></metadata><defs
     id="defs6"><clipPath
       clipPathUnits="userSpaceOnUse"
       id="clipPath16"><path
         d="m 0,300 300.005,0 0,-300 L 0,0 0,300 Z"
         id="path18"
         inkscape:connector-curvature="0" /></clipPath></defs><sodipodi:namedview
     pagecolor="#ffffff"
     bordercolor="#666666"
     borderopacity="1"
     objecttolerance="10"
     gridtolerance="10"
     guidetolerance="10"
     inkscape:pageopacity="0"
     inkscape:pageshadow="2"
     inkscape:window-width="640"
     inkscape:window-height="480"
     id="namedview4"
     showgrid="false"
     inkscape:zoom="0.62933333"
     inkscape:cx="187.50313"
     inkscape:cy="187.5"
     inkscape:window-x="0"
     inkscape:window-y="0"
     inkscape:window-maximized="0"
     inkscape:current-layer="g10" /><g
     id="g10"
     inkscape:groupmode="layer"
     inkscape:label="Vector Smart Object3"
     transform="matrix(1.25,0,0,-1.25,0,375)"><g
       id="g12"><g
         id="g14"
         clip-path="url(#clipPath16)"><g
           id="g20"
           transform="translate(249.8576,49.8)"><path
             d="m 0,0 c -22.472,-7.491 -45.703,-0.187 -51.844,16.294 -6.169,16.519 7.05,35.944 29.494,43.453 C 0.122,67.238 23.353,59.934 29.494,43.434 35.681,26.944 22.481,7.491 0,0 m 31.012,203.325 -159.384,-28.125 0,28.125 159.384,28.125 0,-28.125 z m -208.799,-231.45 c -22.463,-7.491 -45.685,-0.187 -51.835,16.294 -6.169,16.518 7.041,35.944 29.494,43.453 22.462,7.491 45.684,0.187 51.834,-16.313 6.188,-16.49 -7.031,-35.943 -29.493,-43.434 M 43.444,245.803 c -3.403,2.859 -7.669,4.397 -12.047,4.397 l -3.272,-0.291 -159.384,-28.125 c -8.963,-1.575 -15.478,-9.356 -15.478,-18.459 l 0,-160.969 c -9.516,6.9 -21.863,10.969 -35.569,10.969 -7.969,0 -15.938,-1.322 -23.71,-3.9 -17.793,-5.934 -32.062,-17.831 -39.15,-32.663 -5.475,-11.465 -6.178,-23.934 -2.006,-35.118 7.135,-19.097 27.403,-31.444 51.638,-31.444 7.968,0 15.937,1.303 23.7,3.9 17.784,5.916 32.053,17.812 39.14,32.625 3.047,6.394 4.472,13.088 4.528,19.725 l 0.169,0 0,150 3.263,0.272 156.131,27.553 0,-113.794 c -9.534,6.9 -21.863,10.969 -35.578,10.969 -7.978,0 -15.947,-1.322 -23.71,-3.9 -17.775,-5.934 -32.062,-17.831 -39.131,-32.663 -5.475,-11.465 -6.187,-23.934 -2.015,-35.118 7.143,-19.097 27.393,-31.444 51.637,-31.444 7.988,0 15.947,1.303 23.709,3.9 17.775,5.916 32.044,17.813 39.132,32.625 3.056,6.394 4.49,13.087 4.528,19.725 l 0.178,0 0,196.875 c 0,5.531 -2.466,10.8 -6.703,14.353"
             style="fill:#333333;fill-opacity:1;fill-rule:nonzero;stroke:none"
             id="path22"
             inkscape:connector-curvature="0" /></g></g></g></g></svg>