<?xml version="1.0" encoding="UTF-8" standalone="no"?>
<!-- Created with Inkscape (http://www.inkscape.org/) -->

<svg
   xmlns:dc="http://purl.org/dc/elements/1.1/"
   xmlns:cc="http://creativecommons.org/ns#"
   xmlns:rdf="http://www.w3.org/1999/02/22-rdf-syntax-ns#"
   xmlns:svg="http://www.w3.org/2000/svg"
   xmlns="http://www.w3.org/2000/svg"
   xmlns:sodipodi="http://sodipodi.sourceforge.net/DTD/sodipodi-0.dtd"
   xmlns:inkscape="http://www.inkscape.org/namespaces/inkscape"
   id="svg2"
   version="1.1"
   inkscape:version="0.91 r13725"
   xml:space="preserve"
   width="375"
   height="374.95499"
   viewBox="0 0 375 374.95499"
   sodipodi:docname="video.svg"><metadata
     id="metadata8"><rdf:RDF><cc:Work
         rdf:about=""><dc:format>image/svg+xml</dc:format><dc:type
           rdf:resource="http://purl.org/dc/dcmitype/StillImage" /><dc:title></dc:title></cc:Work></rdf:RDF></metadata><defs
     id="defs6"><clipPath
       clipPathUnits="userSpaceOnUse"
       id="clipPath16"><path
         d="m 0,299.964 300,0 L 300,0 0,0 0,299.964 Z"
         id="path18"
         inkscape:connector-curvature="0" /></clipPath></defs><sodipodi:namedview
     pagecolor="#ffffff"
     bordercolor="#666666"
     borderopacity="1"
     objecttolerance="10"
     gridtolerance="10"
     guidetolerance="10"
     inkscape:pageopacity="0"
     inkscape:pageshadow="2"
     inkscape:window-width="640"
     inkscape:window-height="480"
     id="namedview4"
     showgrid="false"
     inkscape:zoom="0.62940888"
     inkscape:cx="187.5"
     inkscape:cy="187.47749"
     inkscape:window-x="0"
     inkscape:window-y="0"
     inkscape:window-maximized="0"
     inkscape:current-layer="g10" /><g
     id="g10"
     inkscape:groupmode="layer"
     inkscape:label="Vector Smart Object"
     transform="matrix(1.25,0,0,-1.25,0,374.955)"><g
       id="g12"><g
         id="g14"
         clip-path="url(#clipPath16)"><g
           id="g20"
           transform="translate(119.7527,104.8109)"><path
             d="M 0,0 0,89.542 77.363,44.789 0,0 Z m 88.742,55.368 c -0.4,0 -0.4,0.4 -0.8,0.4 L 4.69,103.684 c -2.763,1.563 -5.09,2.363 -7.853,2.363 -5.489,0 -11.379,-4.326 -11.379,-13.742 l 0,-94.232 c 0.4,-9.416 5.89,-13.742 11.779,-13.742 2.763,0 5.49,0.8 8.253,2.363 l 79.689,45.953 c 5.89,3.126 8.653,7.452 9.016,12.178 0.437,1.891 -0.326,6.617 -5.453,10.543 M 30.247,-90.305 c -74.6,0 -135.458,60.858 -135.458,135.458 0,74.6 60.858,135.458 135.458,135.458 74.601,0 135.458,-60.858 135.458,-135.458 0,-74.6 -60.457,-135.458 -135.458,-135.458 m 0,285.458 c -82.852,0 -150,-67.147 -150,-150 0,-82.853 67.148,-149.964 150,-149.964 82.853,0 150,67.147 150,150 0,82.853 -67.147,149.964 -150,149.964"
             style="fill:#000000;fill-opacity:1;fill-rule:nonzero;stroke:none"
             id="path22"
             inkscape:connector-curvature="0" /></g></g></g></g></svg>